<?xml version="1.0" encoding="utf-8"?>
<!-- Generator: Adobe Illustrator 23.0.1, SVG Export Plug-In . SVG Version: 6.00 Build 0)  -->
<svg version="1.1" id="Слой_1" xmlns="http://www.w3.org/2000/svg" xmlns:xlink="http://www.w3.org/1999/xlink" x="0px" y="0px"
	 viewBox="0 0 241 146" style="enable-background:new 0 0 241 146;" xml:space="preserve">
<style type="text/css">
	.st0{fill:#5f28cc;}
</style>
<title>images/logo/payler big</title>
<desc>Created with Sketch.</desc>
<path class="st0" d="M179.1,59.3H179c0,0,0.2-0.9,0.2-2.2v-5.4h-5.6v30h5.8V69.3c0-5.8,2.7-12.2,9.2-12.2c0.6,0,1.5,0.1,1.7,0.1
	v-5.7c-0.5-0.1-1-0.1-1.6-0.1C184,51.4,180.4,55,179.1,59.3z"/>
<path class="st0" d="M152.9,51c-8.5,0-15,6.2-15,15.7c0,8.9,6.5,15.7,16,15.7c4.2,0,8.7-1.6,11.6-4.3l-2.4-4.2
	c-2.4,2.1-5.7,3.5-8.8,3.5c-5.4,0-10-3.5-10.3-10h21.8c0.1-0.8,0.2-1.7,0.2-2.4C165.8,57.4,161.4,51,152.9,51z M144,63.4
	c0.8-4.9,4.3-7.9,8.8-7.9c3.9,0,7.1,2.7,7.2,7.9H144z"/>
<path class="st0" d="M128.2,72.1V39.9h-5.6V74c0,7.5,4.8,8.1,8.2,8.1c0.8,0,1.6-0.1,2-0.2v-5.1c-0.3,0.1-0.8,0-1,0
	C129.8,76.8,128.2,75.7,128.2,72.1z"/>
<path class="st0" d="M92.3,89.2c-1.8,0-3.5-1.3-3.5-1.3l-2,4.4c0,0,2.4,1.9,5.8,1.9c4.2,0,8-2.4,9.8-7l14.1-35.4h-6.2L103,71.6
	c-0.5,1.6-1,3.6-1,3.6h-0.1c0,0-0.5-2.1-1.2-3.6L93.1,52h-6.5l12.6,29.6L97.7,85C96.6,87.5,94.7,89.2,92.3,89.2z"/>
<path class="st0" d="M11.5,110.3V14c0-4.1,3.4-7.5,7.5-7.5h96.3c4.1,0,7.5,3.4,7.5,7.5v14.8h5.6V14c0-7.1-5.8-13-13-13H18.9
	c-7.1,0-13,5.8-13,13v96.3c0,7.1,5.8,13,13,13H117c2.7,0,5.6-2.7,5.6-5.6H18.9C14.8,117.6,11.5,114.4,11.5,110.3z"/>
<path class="st0" d="M23.9,39.9v41.9h5.9V66.2h9.4c7.7,0,13.1-5.4,13.1-13.3s-5.5-13.1-13.1-13.1H23.9V39.9z M46.4,53
	c0,5-3.1,8.2-8.1,8.2h-8.5V45h8.6C43.3,45,46.4,48,46.4,53z"/>
<path class="st0" d="M76.6,81.8H82v-19C82,55.2,77.7,51,70.1,51c-4.2,0-8.8,1.6-11.2,3.6l2.3,4.2c2.4-1.7,5.5-2.9,8.4-2.9
	c3.8,0,6.6,1.7,6.6,6.6v0.6h-1.6c-6.2,0-17.9,1-17.9,10.5c0,5.7,4.8,8.9,10,8.9c4.4,0,8.1-2.6,9.9-6.1h0.1c0,0-0.2,1-0.2,2.4v2.9
	h0.1V81.8z M76.2,68.3c0,4.4-3,9.5-8.1,9.5c-3.8,0-5.7-2.4-5.7-4.8c0-5.6,8-5.9,12.2-5.9h1.5L76.2,68.3
	C76.1,68.3,76.2,68.3,76.2,68.3z"/>
<g>
	<path class="st0" d="M142.4,119.3c0,2.2-2,3.3-4.7,3.3c-2.9,0-4.6-1.2-4.9-3.8l2.2-0.1c0.2,1.4,1,2.1,2.6,2.1s2.4-0.6,2.4-1.8
		c0-1-0.7-1.7-2.4-1.7h-1.3v-1.8h1.2c1.6,0,2.2-0.6,2.2-1.7c0-1-0.7-1.6-2-1.6c-1.2,0-2.2,0.5-2.4,1.9l-2.2-0.2
		c0.3-2.5,2-3.6,4.6-3.6c2.3,0,4.3,0.8,4.3,3c0,1.7-1.2,2.6-3.6,2.8C140.6,116.5,142.4,117.3,142.4,119.3z"/>
	<path class="st0" d="M151.1,119.6h-4.8l-0.8,2.7h-2.3l3.8-11.6h3.6l3.8,11.6H152L151.1,119.6z M146.8,117.9h3.7l-1.8-5.9
		L146.8,117.9z"/>
	<path class="st0" d="M159.5,110.7h7.9v1.9h-5.6v9.8h-2.3L159.5,110.7L159.5,110.7z"/>
	<path class="st0" d="M169.2,110.7h5c2.2,0,4.2,1,4.2,3.7c0,2.6-1.9,3.6-4.2,3.6h-2.8v4.4h-2.3v-11.6L169.2,110.7L169.2,110.7z
		 M173.9,116.2c1.4,0,2.2-0.5,2.2-1.8s-0.8-1.8-2.2-1.8h-2.4v3.6C171.5,116.2,173.9,116.2,173.9,116.2z"/>
	<path class="st0" d="M186.1,119.6h-4.8l-0.8,2.7h-2.3l3.8-11.6h3.6l3.8,11.6H187L186.1,119.6z M181.8,117.9h3.7l-1.8-5.9
		L181.8,117.9z"/>
	<path class="st0" d="M200.5,110.7v11.6h-2.3v-4.9h-5.1v4.9h-2.3v-11.6h2.3v4.8h5.1v-4.8H200.5z"/>
	<path class="st0" d="M212.3,118.7c0,2.6-2,3.7-4.2,3.7h-4.9v-11.6h2.3v4.4h2.6C210.3,115.1,212.3,116.1,212.3,118.7z M210,118.7
		c0-1.3-0.8-1.8-2.2-1.8h-2.3v3.5h2.3C209.2,120.5,210,120,210,118.7z"/>
	<path class="st0" d="M229,116.5c0,3.7-1.8,6.1-5.4,6.1c-3.3,0-5-2-5.4-5.1h-1.8v4.9h-2.3v-11.6h2.3v4.8h1.8c0.3-3,2.1-4.9,5.4-4.9
		C227.2,110.5,229,112.8,229,116.5z M226.7,116.5c0-2.5-1-4.1-3-4.1s-3,1.7-3,4.1s1,4.1,3,4.1S226.7,119,226.7,116.5z"/>
	<path class="st0" d="M123.2,130.6c2.8,0,4.6,1.6,4.9,4l-2.2,0.2c-0.2-1.4-1.3-2.3-2.7-2.3c-2.1,0-3,2-3,4.1c0,2.4,1.2,4.1,3.1,4.1
		c1.6,0,2.5-1,2.7-2.4l2.2,0.1c-0.3,2.5-2,4.2-4.9,4.2c-3.6,0-5.5-2.4-5.5-6.1C117.9,133,119.7,130.6,123.2,130.6z"/>
	<path class="st0" d="M128.9,130.7h9.5v1.9h-3.6v9.8h-2.3v-9.8H129v-1.9H128.9z"/>
	<path class="st0" d="M145.7,139.7h-4.8l-0.8,2.7h-2.3l3.8-11.6h3.6l3.8,11.6h-2.2L145.7,139.7z M141.5,137.9h3.7l-1.8-5.9
		L141.5,137.9z"/>
	<path class="st0" d="M160.3,130.7v11.6H158v-4.9h-5.1v4.9h-2.3v-11.6h2.3v4.8h5.1v-4.8H160.3z"/>
	<path class="st0" d="M172.9,140.4v4.6h-2.2v-2.7h-6.9v2.7h-2.2v-4.6h0.8c0.6-1.4,1-4.3,1.3-9.8h8v9.8H172.9z M169.5,132.7h-3.6
		c-0.1,1.6-0.2,3.6-0.5,5.2c-0.2,1-0.4,1.9-0.6,2.5h4.7L169.5,132.7L169.5,132.7z"/>
	<path class="st0" d="M181.3,139.7h-4.8l-0.8,2.7h-2.3l3.8-11.6h3.6l3.8,11.6h-2.4L181.3,139.7z M177,137.9h3.7l-1.8-5.9L177,137.9z
		"/>
	<path class="st0" d="M186.1,130.7h5c2.2,0,4.2,1,4.2,3.7s-1.9,3.6-4.2,3.6h-2.8v4.4H186v-11.6L186.1,130.7L186.1,130.7z
		 M190.9,136.2c1.4,0,2.2-0.5,2.2-1.8s-0.8-1.8-2.2-1.8h-2.4v3.6H190.9z"/>
	<path class="st0" d="M196.1,130.7h9.5v1.9H202v9.8h-2.3v-9.8h-3.6L196.1,130.7L196.1,130.7z"/>
	<path class="st0" d="M211.9,130.6c3.6,0,5.6,2.4,5.6,6.1s-2,6.1-5.6,6.1s-5.6-2.4-5.6-6.1S208.3,130.6,211.9,130.6z M211.9,140.6
		c2.1,0,3.3-1.8,3.3-4.1s-1.2-4.1-3.3-4.1s-3.3,1.8-3.3,4.1S209.9,140.6,211.9,140.6z"/>
	<path class="st0" d="M229.1,139.3c0,2.1-1.9,3.1-4.3,3.1h-5.4v-11.6h5.2c2.2,0,4.1,0.8,4.1,2.9c0,1.7-1.2,2.6-3.5,2.7
		C227.3,136.5,229.1,137.3,229.1,139.3z M221.7,135.6h2.6c1.3,0,1.9-0.6,1.9-1.6c0-0.9-0.6-1.5-2-1.5h-2.6v3h0.1V135.6z M226.7,139
		c0-0.9-0.6-1.7-2.1-1.7h-2.8v3.3h2.7C226,140.5,226.7,139.9,226.7,139z"/>
</g>
</svg>
